<svg width="42" height="42" viewBox="0 0 42 42" fill="none" xmlns="http://www.w3.org/2000/svg">
<path d="M21 0.25C9.54169 0.25 0.166687 9.60417 0.166687 21.125C0.166687 31.5417 7.79169 40.1875 17.75 41.75V27.1667H12.4584V21.125H17.75V16.5208C17.75 11.2917 20.8542 8.41667 25.625 8.41667C27.8959 8.41667 30.2709 8.8125 30.2709 8.8125V13.9583H27.6459C25.0625 13.9583 24.25 15.5625 24.25 17.2083V21.125H30.0417L29.1042 27.1667H24.25V41.75C29.1593 40.9747 33.6296 38.4698 36.854 34.6876C40.0785 30.9054 41.8445 26.0951 41.8334 21.125C41.8334 9.60417 32.4584 0.25 21 0.25Z" fill="#DB4A2B"/>
</svg>
