<svg width="250" height="226" viewBox="0 0 250 226" fill="none" xmlns="http://www.w3.org/2000/svg">
<path d="M33.9556 110.713C37.7109 110.713 41.056 111.581 43.9877 113.309C46.9193 115.04 49.2054 117.417 50.846 120.436C52.4934 123.458 53.3204 126.847 53.3204 130.603V131.746C53.3204 135.494 52.4934 138.897 50.846 141.953C49.2054 145.002 46.9193 147.392 43.9877 149.12C41.056 150.852 37.7109 151.716 33.9556 151.716H19.4455V171.242H0V110.713H33.9556ZM19.4455 137.542H27.4469C29.4977 137.542 31.0375 137.017 32.0595 135.968C33.0882 134.913 33.606 133.474 33.606 131.652V130.952C33.606 129.07 33.0882 127.617 32.0595 126.595C31.0375 125.566 29.4977 125.049 27.4469 125.049H19.4455V137.542Z" fill="#DB4A2B"/>
<path d="M109.7 129.271C109.7 132.976 108.698 136.325 106.701 139.317C104.711 142.302 101.81 144.501 98.0008 145.906L111.462 171.242H89.6363L78.9049 149.161H71.6969V171.242H52.2515V110.713H89.2866C93.6235 110.713 97.3318 111.554 100.408 113.228C103.491 114.896 105.807 117.155 107.36 120.006C108.92 122.85 109.7 125.936 109.7 129.271ZM89.9052 130.065C89.9052 128.488 89.374 127.17 88.3184 126.111C87.2695 125.055 85.9785 124.524 84.4454 124.524H71.6969V135.699H84.4454C85.9785 135.699 87.2695 135.158 88.3184 134.072C89.374 132.99 89.9052 131.652 89.9052 130.065Z" fill="#DB4A2B"/>
<path d="M110.317 171.242V110.713H129.749V171.242H110.317Z" fill="#DB4A2B"/>
<path d="M175.676 171.242L150.246 141.858V171.242H132.387V110.713H149.372L174.788 140.541V110.713H192.647V171.242H175.676Z" fill="#DB4A2B"/>
<path d="M229.246 126.192V171.242H209.801V126.192H189.911V110.713H249.041V126.192H229.246Z" fill="#DB4A2B"/>
<path d="M69.8543 177.221C76.9547 177.221 82.7305 178.411 87.1885 180.784C91.6431 183.161 93.872 187.021 93.872 192.363V210.477C93.872 211.472 94.104 212.292 94.5713 212.938C95.0453 213.583 95.748 213.906 96.6826 213.906H99.8563V224.032C99.6747 224.15 99.2175 224.342 98.4846 224.61C97.7584 224.869 96.7162 225.128 95.3647 225.39C94.0199 225.659 92.4634 225.794 90.6983 225.794C87.2994 225.794 84.4989 225.283 82.2935 224.261C80.0948 223.232 78.5886 221.807 77.775 219.984C75.5427 221.743 73.0448 223.151 70.2846 224.207C67.5312 225.263 64.3071 225.794 60.6157 225.794C49.7028 225.794 44.2498 221.45 44.2498 212.763C44.2498 208.255 45.4634 204.812 47.8941 202.435C50.3315 200.062 53.838 198.434 58.4103 197.554C62.9892 196.666 68.9735 196.222 76.363 196.222V193.936C76.363 192.117 75.731 190.742 74.4669 189.808C73.2095 188.866 71.5823 188.396 69.5854 188.396C67.7733 188.396 66.2032 188.718 64.8786 189.364C63.5608 190.009 62.9018 191.038 62.9018 192.443V192.793H45.6618C45.5979 192.507 45.5676 192.101 45.5676 191.569C45.5676 187.169 47.6655 183.675 51.8612 181.094C56.0569 178.512 62.0546 177.221 69.8543 177.221ZM76.363 204.493C71.3773 204.493 67.6959 205.037 65.3224 206.12C62.9455 207.206 61.7588 208.658 61.7588 210.477C61.7588 213.408 63.7524 214.874 67.743 214.874C70.0291 214.874 72.0362 214.262 73.7676 213.032C75.4956 211.805 76.363 210.282 76.363 208.46V204.493Z" fill="#DB4A2B"/>
<path d="M122.552 177.14C123.897 177.14 125.094 177.301 126.143 177.624C127.199 177.947 127.73 178.135 127.73 178.189V192.887H122.109C118.468 192.887 115.842 193.825 114.228 195.698C112.615 197.574 111.808 200.361 111.808 204.062V224.732H94.3121V178.283H108.647L109.791 185.316C110.846 182.62 112.52 180.583 114.807 179.211C117.093 177.832 119.675 177.14 122.552 177.14Z" fill="#DB4A2B"/>
<path d="M153.065 178.283V190.157H143.221V207.841C143.221 209.949 143.571 211.485 144.27 212.454C144.976 213.422 146.267 213.906 148.143 213.906H153.065V224.207C151.657 224.674 149.838 225.054 147.605 225.35C145.38 225.646 143.45 225.794 141.809 225.794C136.645 225.794 132.668 224.856 129.881 222.983C127.101 221.101 125.712 217.9 125.712 213.382V190.157H119.204V178.283H126.412L130.191 164.203H143.221V178.283H153.065Z" fill="#DB4A2B"/>
<path d="M173.909 177.221C182.415 177.221 188.91 179.218 193.395 183.205C197.886 187.195 200.132 193.297 200.132 201.507V204.493H165.289C165.289 207.838 166.035 210.363 167.535 212.064C169.031 213.768 171.394 214.619 174.622 214.619C177.553 214.619 179.705 214.007 181.077 212.776C182.455 211.539 183.148 209.895 183.148 207.841H200.132C200.132 213.472 197.987 217.873 193.704 221.047C189.428 224.214 183.181 225.794 174.971 225.794C166.345 225.794 159.658 223.787 154.907 219.769C150.164 215.745 147.793 209.657 147.793 201.507C147.793 193.529 150.106 187.488 154.732 183.38C159.365 179.275 165.76 177.221 173.909 177.221ZM174.622 188.396C169.108 188.396 166.029 191.005 165.383 196.222H182.448C182.448 193.822 181.756 191.916 180.377 190.507C179.006 189.102 177.086 188.396 174.622 188.396Z" fill="#DB4A2B"/>
<mask id="mask0_1_71" style="mask-type:luminance" maskUnits="userSpaceOnUse" x="88" y="0" width="20" height="81">
<path d="M88.4083 0H107.743V80.2966H88.4083V0Z" fill="white"/>
</mask>
<g mask="url(#mask0_1_71)">
<path d="M88.4083 0H107.743V80.2798H88.4083V0Z" fill="#DB4A2B"/>
</g>
<mask id="mask1_1_71" style="mask-type:luminance" maskUnits="userSpaceOnUse" x="78" y="12" width="94" height="20">
<path d="M78.9512 12.5569H171.667V31.8881H78.9512V12.5569Z" fill="white"/>
</mask>
<g mask="url(#mask1_1_71)">
<path d="M171.667 12.5569V31.8881H78.924V12.5569H171.667Z" fill="#DB4A2B"/>
</g>
<mask id="mask2_1_71" style="mask-type:luminance" maskUnits="userSpaceOnUse" x="136" y="5" width="20" height="34">
<path d="M136.282 5.74554H155.614V38.2589H136.282V5.74554Z" fill="white"/>
</mask>
<g mask="url(#mask2_1_71)">
<path d="M136.282 5.74554H155.614V38.2959H136.282V5.74554Z" fill="#DB4A2B"/>
</g>
<mask id="mask3_1_71" style="mask-type:luminance" maskUnits="userSpaceOnUse" x="136" y="60" width="20" height="21">
<path d="M136.282 60.9621H155.614V80.2966H136.282V60.9621Z" fill="white"/>
</mask>
<g mask="url(#mask3_1_71)">
<path d="M136.282 60.9621H155.614V80.2966H136.282V60.9621Z" fill="#DB4A2B"/>
</g>
</svg>
